<svg width="38" height="38" viewBox="0 0 38 38" fill="none" xmlns="http://www.w3.org/2000/svg">
    <path fill-rule="evenodd" clip-rule="evenodd"
        d="M27.64 17.498H27.79l.007.002h.006l.006.001h.006l.006.002.007.001.006.002.006.001.006.002.007.001.006.002.006.002.006.001.006.002.007.001.006.002.006.001.006.002.006.001.007.002.006.002.006.001.006.002.007.001.006.002.006.001.006.002.006.001.007.002.006.001.006.002.006.002.006.001.007.002.006.001.006.002.006.001.007.002.006.001.006.002.006.002.006.001.007.002.006.003.006.001.006.003.006.002.007.003.006.003.006.003.006.003.007.004.004.003.006.003.007.003.004.003.007.003.004.003.005.003.006.003.005.003.005.004.004.003.005.003.005.003.004.003.005.003.004.003.005.003.005.003.004.004.005.003.005.003.004.003.005.003.005.003.004.003.005.003.005.003.004.003.005.004.005.004.004.003.005.003.005.004.004.004.005.003.005.005.004.005.005.003.005.005.004.004.005.005.005.005.004.004.005.005.005.005.004.004.005.005.005.005.004.004.005.005.005.005.004.004.005.005.005.004.004.005v.002l.005.004.008.008v.002l.003.004v.002l.003.005v.001l.017.02.003.003v.002l.003.005v.001l.003.003.008.01v.001l.008.01.001.001.004.003.001.002.003.003.002.001.025.036.001.002.014.02v.001l.003.007.003.004.005.008.003.005v.001l.003.005v.002l.003.004v.002l.003.004v.002l.007.01.003.006v.001l.003.005v.001l.003.005v.002l.003.004v.002l.003.004v.002l.003.005v.001l.003.005v.001l.002.005v.002l.002.004.001.005.002.005.001.004.003.005.002.005.003.004.002.005.001.006.002.006.001.006.002.007.001.006.002.006.001.006.002.007.002.006.001.006.002.006.001.006.002.007.001.006.002.006.001.006.002.006.002.007.001.006.002.006.001.006.002.007.001.006.002.006.001.006.002.006.002.007.001.006.002.006.001.006.002.007.001.006.002.006.001.006.002.006.002.007.001.006.002.006.001.012v.007l.002.006.001.012v.025l.002.013V18.413l.005.06V19.421a1.049 1.049 0 0 1-.65.97c-.124.051-.261.08-.401.08H20.45v7.125a1.05 1.05 0 0 1-.65.97c-.124.05-.26.08-.4.08h-.905a1.05 1.05 0 0 1-.97-.65 1.049 1.049 0 0 1-.08-.4v-7.125H10.151l-.007-.001h-.006l-.006-.002h-.006l-.007-.001-.006-.002-.006-.001-.006-.002-.006-.001-.007-.002-.006-.002-.006-.001-.006-.002-.006-.001-.007-.002-.006-.001-.006-.002-.006-.001-.006-.002-.007-.001-.006-.002-.006-.002-.006-.001-.007-.002-.006-.001-.006-.002-.006-.001-.007-.002-.006-.001-.006-.002-.006-.002-.006-.001-.007-.002-.006-.001-.006-.002-.006-.001-.006-.002-.007-.001-.006-.002-.006-.002-.006-.001-.007-.002-.006-.001-.006-.003-.006-.002-.006-.003-.007-.002-.006-.003-.006-.003-.006-.003-.006-.003-.005-.003-.006-.003-.007-.003-.004-.003-.006-.003-.005-.004-.005-.003-.006-.003-.005-.003-.004-.003-.005-.003-.005-.003-.004-.003-.005-.004-.005-.003-.004-.003-.005-.003-.005-.003-.004-.003-.005-.003-.005-.003-.004-.003-.005-.003-.005-.003-.004-.004-.005-.003-.005-.003-.004-.003-.005-.003-.005-.003-.004-.005-.005-.003-.005-.003-.004-.005-.005-.003-.005-.005-.004-.003-.005-.004-.005-.005-.004-.005-.005-.004-.005-.005-.004-.005-.005-.004-.005-.005-.004-.005-.005-.004-.004-.005-.005-.005-.005-.004-.004-.005-.005-.005-.005-.004-.004-.005-.005-.005-.005-.004-.004-.005-.005-.005-.005-.004-.004-.005-.005-.005-.005-.004-.004-.005-.005-.005-.003-.004-.005-.005-.003-.005-.005-.004-.003-.005-.003-.005-.003-.004-.003-.005-.003-.005-.003-.004-.003-.005-.003-.004-.004-.005-.003-.005-.003-.004-.003-.005-.003-.005-.003-.004-.003-.005-.003-.005-.003-.004-.004-.005-.003-.005-.003-.004-.003-.005-.003-.005-.003-.004-.003-.005-.003-.006L9.434 20l-.004-.005-.003-.006-.003-.005-.003-.006-.003-.006-.003-.005-.003-.006-.003-.006-.003-.006-.004-.006-.003-.007-.001-.006-.003-.006-.002-.006-.003-.006-.002-.007-.001-.006-.002-.006-.001-.006-.002-.007-.001-.006-.002-.006-.001-.006-.002-.006-.002-.007-.001-.006-.002-.006-.001-.006-.002-.006-.001-.007-.002-.006-.001-.006-.002-.006-.001-.007-.002-.006-.002-.006-.001-.006-.002-.006-.001-.007-.002-.006-.001-.006-.002-.006-.001-.007-.002-.006-.002-.006-.001-.006-.002-.006-.001-.007-.002-.006-.001-.006-.002-.006-.001-.006-.002-.007v-.006l-.002-.006v-.006l-.001-.007v-1.119l.005-.059v-.012l.001-.019v-.006l.005-.033.001-.012.003-.019.002-.006.005-.018.003-.013.01-.043a.98.98 0 0 1 .04-.114l.004-.012.016-.036.007-.017a1.074 1.074 0 0 1 .94-.584h7.125v-7.125a1.049 1.049 0 0 1 .65-.97c.124-.05.259-.08.4-.08h.905a1.049 1.049 0 0 1 .97.651c.051.124.08.261.08.4v7.125h7.139l.001-.031ZM19 0a18.954 18.954 0 0 1 13.435 5.565A18.937 18.937 0 0 1 38 19c0 2.57-.513 5.025-1.44 7.266A19.06 19.06 0 0 1 26.265 36.56 18.937 18.937 0 0 1 19.002 38a18.98 18.98 0 0 1-7.266-1.44 19.001 19.001 0 0 1-6.17-4.125A18.943 18.943 0 0 1 0 18.999 18.954 18.954 0 0 1 5.565 5.565 18.943 18.943 0 0 1 19.001 0Zm11.312 7.69a16.015 16.015 0 0 0-5.193-3.475 15.954 15.954 0 0 0-6.118-1.21c-2.168 0-4.235.43-6.119 1.21A16 16 0 0 0 7.69 7.69a16.016 16.016 0 0 0-3.475 5.192 15.954 15.954 0 0 0-1.21 6.119c0 2.168.43 4.235 1.21 6.118a15.998 15.998 0 0 0 3.475 5.193A15.95 15.95 0 0 0 19 34.997c2.169 0 4.236-.43 6.12-1.21a15.999 15.999 0 0 0 5.192-3.475A15.95 15.95 0 0 0 34.997 19c0-2.168-.43-4.235-1.21-6.119a16 16 0 0 0-3.475-5.192Z"
        fill="currentColor" />
</svg>
