<svg width="90" height="33" viewBox="0 0 90 33" fill="none" xmlns="http://www.w3.org/2000/svg">
<g clip-path="url(#clip0_547_71)">
<path d="M22.7284 5.77748L17.1161 1.2218C16.7807 0.949722 16.7807 0.614374 17.1224 0.342298C17.4641 0.0702227 18.0399 -0.056324 18.6346 0.0132767L20.5392 0.222079C20.9378 0.26637 21.2478 0.380262 21.4693 0.563755L25.5631 3.88561C25.7845 4.0691 25.8605 4.26525 25.7782 4.48038L25.3922 5.5054C25.272 5.8281 24.8291 6.06221 24.2343 6.11916C23.6396 6.18243 23.0638 6.04956 22.7284 5.77748Z" fill="black"/>
<path d="M8.01702 19.0777L11.8008 9.49808C11.8324 9.41582 11.8704 9.33989 11.9147 9.27029C11.9589 9.19436 12.0032 9.12476 12.0475 9.06149C12.0981 8.99822 12.1488 8.93494 12.2057 8.878C12.2627 8.82105 12.3196 8.77043 12.3829 8.71981C12.4588 8.66287 12.5347 8.61858 12.617 8.57429C12.6992 8.53632 12.7815 8.49836 12.8638 8.47305C12.946 8.44774 13.0346 8.42243 13.1232 8.40977C13.2118 8.39712 13.3067 8.39079 13.4016 8.39079H14.6417L14.7809 8.39712L14.9138 8.4161L15.053 8.44774L15.1859 8.49203C15.2428 8.51734 15.3061 8.54265 15.3631 8.57429C15.42 8.60592 15.4706 8.64389 15.5276 8.68185C15.5782 8.71981 15.6288 8.76411 15.6731 8.81472C15.7174 8.86534 15.7617 8.91596 15.7996 8.96658C15.8376 9.02353 15.8756 9.08047 15.9009 9.14375C15.9325 9.20069 15.9578 9.26397 15.9768 9.32724C16.0211 9.46011 16.0401 9.59299 16.0401 9.73219L16.0337 9.87772L16.0084 10.0169L15.9768 10.1498L15.9262 10.289L9.13063 25.5126L9.0547 25.6518L8.95979 25.791C8.92183 25.8353 8.88386 25.8796 8.83957 25.9238C8.78263 25.9745 8.72568 26.0188 8.66241 26.063C8.59913 26.101 8.52953 26.139 8.45993 26.1643C8.39666 26.1896 8.32073 26.2149 8.2448 26.2276C8.1752 26.2402 8.1056 26.2465 8.02967 26.2465H7.99171C7.90313 26.2465 7.8272 26.2339 7.75127 26.2212C7.67534 26.2086 7.59941 26.1833 7.53614 26.1516C7.46654 26.12 7.40327 26.0884 7.34632 26.0504C7.28305 26.0061 7.2261 25.9618 7.17548 25.9175L7.06159 25.791L6.96035 25.6518L6.88442 25.5189L0.158468 10.3776C0.0888675 10.2447 0.0635582 10.1814 0.0319215 10.0296C0.0129395 9.8967 0.000284853 9.78913 -0.00604248 9.65626C-0.00604248 9.45379 0.0319215 9.27029 0.10785 9.10578C0.183778 8.9476 0.29767 8.80207 0.449526 8.68818C0.512799 8.63756 0.5824 8.59959 0.652 8.56163C0.721601 8.52999 0.797529 8.49836 0.879784 8.47305C0.955712 8.45407 1.03797 8.43508 1.12655 8.42243C1.20881 8.40977 1.29739 8.40345 1.37964 8.40345H2.63878C2.72104 8.40345 2.80329 8.40977 2.88555 8.42243C2.97413 8.43508 3.05639 8.45407 3.13232 8.47305C3.21457 8.49836 3.29683 8.52999 3.36643 8.56163C3.44235 8.59959 3.51828 8.63756 3.58156 8.68818C3.65116 8.73247 3.71443 8.78309 3.7777 8.84003C3.84098 8.89698 3.89792 8.96025 3.94854 9.0172C3.99916 9.08047 4.04978 9.15007 4.09407 9.226C4.13836 9.2956 4.17633 9.37153 4.21429 9.45378L7.99804 19.0524L8.01702 19.0777Z" fill="black"/>
<path d="M64.0764 3.68957C64.0764 3.53772 64.0827 3.3732 64.089 3.20237L64.127 2.70251L64.1776 2.20898L64.2409 1.74075C64.2599 1.56359 64.3042 1.4054 64.3674 1.25988C64.437 1.11435 64.5256 0.981472 64.6395 0.873908C64.7597 0.760016 64.8989 0.67776 65.0508 0.620814C65.2026 0.563868 65.3735 0.538559 65.557 0.538559H66.5757C66.7528 0.538559 66.9237 0.570196 67.0819 0.627142C67.2401 0.690415 67.3856 0.778998 67.5058 0.89289C67.626 1.01311 67.7209 1.15231 67.7842 1.31049C67.8475 1.46235 67.8791 1.63319 67.8791 1.81668V24.4749C67.8791 24.671 67.8475 24.8545 67.7842 25.019C67.7209 25.1899 67.626 25.3417 67.4995 25.4683C67.3729 25.5948 67.2274 25.696 67.0566 25.7593C66.8921 25.8226 66.7086 25.8542 66.5124 25.8542H65.5949C65.3925 25.8542 65.209 25.8226 65.0445 25.7656C64.8736 25.7024 64.7281 25.6075 64.6016 25.4872C64.4813 25.367 64.3864 25.2278 64.3232 25.0633C64.2599 24.9051 64.2219 24.7216 64.2093 24.5255L64.184 24.1269C63.9878 24.3167 63.7853 24.5002 63.5702 24.6647C63.2285 24.9304 62.8615 25.1582 62.4756 25.3607C61.9061 25.6518 61.2987 25.8732 60.6786 26.0251C60.0395 26.1769 59.3878 26.2528 58.7424 26.2528C57.5466 26.2528 56.433 26.0187 55.4206 25.5885C54.3639 25.1392 53.4275 24.4875 52.6492 23.6776C51.8583 22.8551 51.2256 21.868 50.8016 20.7797C50.384 19.7167 50.1562 18.5462 50.1562 17.3313C50.1562 16.1228 50.384 14.9586 50.808 13.8892C51.2382 12.8009 51.871 11.8075 52.6619 10.985C53.4401 10.1688 54.3766 9.51072 55.4332 9.06148C56.4393 8.63122 57.5529 8.39711 58.7424 8.39711C59.3878 8.39711 60.0395 8.47936 60.6786 8.63755C61.305 8.7894 61.9188 9.02351 62.4882 9.32723C62.8552 9.52337 63.2032 9.75116 63.5322 10.0043C63.7221 10.1561 63.9055 10.3143 64.0827 10.4788V3.70223L64.0764 3.68957ZM53.959 17.3186C53.959 18.021 54.0982 18.6917 54.3449 19.2991C54.598 19.9318 54.9777 20.5013 55.4459 20.9758C55.9078 21.4441 56.4646 21.83 57.0784 22.0831C57.6731 22.3299 58.3248 22.4691 59.0145 22.4691C59.7105 22.4691 60.3686 22.3299 60.9697 22.0768C61.5961 21.8174 62.1592 21.4314 62.6274 20.9505C63.102 20.4697 63.4879 19.8939 63.7474 19.2611C64.0005 18.6537 64.1397 17.9767 64.1397 17.2744C64.1397 16.572 64.0005 15.9077 63.7537 15.3066C63.4943 14.6802 63.1146 14.117 62.6464 13.6425C62.1782 13.1742 61.6151 12.7946 60.9823 12.5352C60.3812 12.2884 59.7169 12.1492 59.0145 12.1492C58.3248 12.1492 57.6731 12.2884 57.0784 12.5352C56.4583 12.7946 55.9015 13.1742 55.4396 13.6488C54.9714 14.1233 54.5917 14.6928 54.3386 15.3255C54.0919 15.933 53.9527 16.6037 53.9527 17.306L53.959 17.3186Z" fill="black"/>
<path d="M34.1745 10.061C34.1745 9.8775 34.2062 9.70666 34.2695 9.5548C34.3327 9.39662 34.4276 9.25109 34.5479 9.1372C34.6681 9.02331 34.8136 8.9284 34.9718 8.87145C35.13 8.81451 35.3008 8.78287 35.478 8.78287H36.4967C36.6802 8.78287 36.851 8.81451 37.0029 8.86512C37.161 8.92207 37.3002 9.01065 37.4141 9.11822C37.528 9.22578 37.6229 9.35866 37.6862 9.51051C37.7495 9.65604 37.7938 9.82055 37.8128 10.004L37.8254 10.1116C37.9646 9.97873 38.1101 9.85852 38.2557 9.7383C38.5214 9.52949 38.8061 9.346 39.0972 9.18149C39.5591 8.9284 40.059 8.72592 40.5651 8.59305C41.065 8.46017 41.5775 8.38425 42.0711 8.38425C43.0518 8.38425 43.9566 8.57407 44.7602 8.92207C45.608 9.28273 46.3547 9.82055 46.9684 10.4786C47.5948 11.1556 48.0883 11.9718 48.4237 12.864C48.7527 13.7562 48.9362 14.7242 48.9362 15.7366V24.4683C48.9362 24.6581 48.9046 24.8353 48.8413 25.0062C48.778 25.177 48.6894 25.3288 48.5692 25.4491C48.449 25.5756 48.2971 25.6768 48.1326 25.7464C47.9745 25.8097 47.791 25.8477 47.6011 25.8477H46.4369C46.2155 25.8477 46.0256 25.8161 45.8611 25.7528C45.6903 25.6895 45.5511 25.5883 45.4309 25.4554C45.3233 25.3288 45.2474 25.1833 45.1968 25.0188C45.1525 24.8606 45.1272 24.6835 45.1272 24.4873V15.7619C45.1272 15.1925 45.0259 14.6863 44.8488 14.2497C44.6589 13.7815 44.3805 13.3892 44.0389 13.0791C43.8111 12.8703 43.5516 12.6932 43.2796 12.554C43.0012 12.4084 42.6975 12.3072 42.3811 12.2376C42.0711 12.168 41.7484 12.1427 41.4257 12.1553C41.1093 12.168 40.7929 12.2186 40.4892 12.3135C40.021 12.459 39.5718 12.6995 39.1795 13.0412C38.8188 13.3639 38.5024 13.7688 38.262 14.2687C38.2177 14.3699 38.1734 14.4711 38.1355 14.5787C38.1038 14.6799 38.0722 14.7938 38.0469 14.9014C38.0216 15.0153 38.0026 15.1292 37.9899 15.2431C37.9773 15.3506 37.9709 15.4709 37.9709 15.5911V24.5632C37.9709 24.7467 37.9393 24.9239 37.876 25.0758C37.8128 25.2339 37.7178 25.3795 37.5976 25.4934C37.4774 25.6072 37.3382 25.7022 37.18 25.7591C37.0218 25.816 36.851 25.8477 36.6675 25.8477H35.5033C34.6111 25.8477 34.1682 25.4174 34.1682 24.5632V10.0547L34.1745 10.061Z" fill="black"/>
<path d="M24.4737 22.4752C24.7901 22.4752 25.1065 22.4499 25.4102 22.3929C25.7202 22.336 26.0239 22.2537 26.315 22.1461C26.606 22.0386 26.8844 21.9057 27.1439 21.7475C27.4033 21.5957 27.6437 21.4185 27.8652 21.2224L27.9601 21.1401C28.0613 21.0642 28.1815 21.0009 28.3081 20.9503C28.4283 20.906 28.5549 20.868 28.6814 20.8554C28.8522 20.8364 29.0294 20.849 29.1939 20.9123C29.3458 20.9693 29.485 21.0642 29.6052 21.2034L29.6115 21.2097C29.814 21.4691 29.9975 21.7412 30.181 22.0069C30.3139 22.2031 30.4467 22.3929 30.5859 22.5891L30.5923 22.6017C30.7188 22.8105 30.7694 23.0067 30.7631 23.2028C30.7568 23.3926 30.6935 23.5698 30.5923 23.7343C30.5227 23.8545 30.4341 23.9621 30.3392 24.057C30.2443 24.1519 30.1557 24.2342 30.0734 24.3038L30.0355 24.3354C29.6115 24.6518 29.1749 24.9302 28.7257 25.1706C28.2828 25.4047 27.8272 25.6072 27.359 25.7717C26.9034 25.9299 26.4289 26.0501 25.948 26.1324C25.4671 26.2146 24.9736 26.2589 24.4674 26.2589C23.2589 26.2589 22.1073 26.0185 21.0506 25.5819C19.9623 25.1326 18.9816 24.4683 18.159 23.6457C17.3428 22.8232 16.6785 21.8424 16.2292 20.7478C15.7926 19.6975 15.5522 18.5396 15.5522 17.331C15.5522 16.1288 15.7926 14.9709 16.2292 13.9206C16.6785 12.826 17.3428 11.8452 18.1654 11.0164C18.9879 10.1938 19.9687 9.52944 21.057 9.07387C22.1073 8.63729 23.2589 8.39685 24.4611 8.39685C25.638 8.39685 26.7516 8.61831 27.7513 9.01693C28.789 9.43453 29.7191 10.0483 30.4847 10.8139C31.2566 11.5795 31.8704 12.5033 32.288 13.5346C32.6929 14.5344 32.9144 15.6416 32.9144 16.8122V16.9514C32.9207 17.6284 32.927 18.3308 32.0982 18.7547C31.9716 18.818 31.8451 18.8686 31.7122 18.9065C31.5857 18.9382 31.4465 18.9635 31.3136 18.9825C31.1934 18.9951 31.0731 19.0078 30.9529 19.0078L30.6239 19.0141H19.5954C19.7409 19.4254 19.9307 19.8114 20.1648 20.1657C20.4495 20.5959 20.8039 20.9819 21.2025 21.3109C21.6581 21.6842 22.1769 21.9816 22.7337 22.1841C23.2779 22.3803 23.86 22.4815 24.4611 22.4815L24.4737 22.4752ZM29.0737 15.5974C28.9661 15.1924 28.8016 14.8128 28.5992 14.4648C28.3461 14.0345 28.0234 13.6549 27.6501 13.3322C27.2198 12.9589 26.7199 12.6615 26.1758 12.4653C25.6443 12.2692 25.0748 12.1616 24.4801 12.1616C23.879 12.1616 23.3032 12.2692 22.759 12.459C22.2022 12.6615 21.6834 12.9525 21.2278 13.3258C20.8292 13.6485 20.4812 14.0345 20.1964 14.4584C19.9623 14.8064 19.7725 15.1861 19.6333 15.591H29.08L29.0737 15.5974Z" fill="black"/>
<path d="M69.563 2.27196C69.563 2.14542 69.5693 2.01887 69.5883 1.90498C69.6073 1.77843 69.6263 1.66454 69.6579 1.55065C69.6895 1.43676 69.7338 1.32286 69.7781 1.22795C69.8287 1.12672 69.8794 1.03181 69.9426 0.949551C70.0059 0.867296 70.0692 0.791368 70.1451 0.728095C70.2147 0.664821 70.2906 0.607875 70.3729 0.563584C70.4551 0.519293 70.5374 0.487656 70.626 0.462347C70.7146 0.437037 70.8031 0.43071 70.8854 0.43071H71.8408C71.9294 0.43071 72.018 0.443365 72.1002 0.462347C72.1888 0.481329 72.2711 0.512965 72.347 0.550929C72.4293 0.595221 72.5052 0.645839 72.5748 0.702785C72.6444 0.766059 72.714 0.835659 72.771 0.917915C72.8279 1.00017 72.8785 1.08243 72.9291 1.17734C72.9734 1.26592 73.0114 1.36716 73.0494 1.47472C73.081 1.57596 73.1126 1.68352 73.1316 1.79741C73.1506 1.91131 73.1696 2.0252 73.1759 2.15174C73.2392 2.81611 73.2898 3.43619 73.3214 4.10056L73.3278 4.44857L73.3341 4.77126L73.3404 16.8248C73.448 18.9635 73.8529 20.5833 74.144 21.7602L74.1503 21.7981C74.3022 22.4055 74.4287 22.9181 74.4857 23.38C74.5173 23.633 74.53 23.8798 74.511 24.1076C74.492 24.3417 74.4477 24.5632 74.3654 24.772L74.3275 24.8922C74.3085 24.9555 74.2895 25.0124 74.2642 25.0693C74.2389 25.1263 74.2136 25.1832 74.1819 25.2402C74.144 25.2971 74.106 25.3541 74.0554 25.4047C74.0048 25.4553 73.9478 25.5059 73.8782 25.5502L73.739 25.6325L73.3341 25.816C73.0873 25.9299 72.7899 26.0627 72.5748 26.0691C72.3533 26.0691 72.1382 25.9995 71.9294 25.8729C71.7206 25.74 71.5181 25.5502 71.3346 25.2971C71.1575 25.063 70.9866 24.7656 70.8285 24.424C70.6703 24.0886 70.5247 23.6963 70.3982 23.2724C70.278 22.8801 70.1704 22.4372 70.0692 21.9563C69.9743 21.4881 69.892 20.9882 69.8224 20.4631C69.7528 19.9505 69.7022 19.4064 69.6579 18.8369C69.6199 18.2864 69.5946 17.7107 69.5883 17.1222L69.5756 2.28462L69.563 2.27196Z" fill="black"/>
<path d="M82.2436 18.6979L85.9324 9.71311C85.964 9.63718 85.9957 9.56125 86.0336 9.48532C86.0716 9.41572 86.1096 9.34612 86.1539 9.28918C86.1981 9.21958 86.2551 9.1563 86.3057 9.09936C86.3563 9.04241 86.4133 8.99179 86.4765 8.94117C86.5461 8.89056 86.6157 8.83994 86.6917 8.79564C86.7613 8.75768 86.8435 8.71972 86.9258 8.69441C87.008 8.6691 87.0966 8.64379 87.1852 8.63113C87.2738 8.61848 87.3687 8.61215 87.4636 8.61215H88.6721L88.805 8.61848L88.9442 8.63746C88.9885 8.65012 89.0391 8.65644 89.0771 8.6691L89.2036 8.71339C89.2606 8.7387 89.3175 8.76401 89.3681 8.80197C89.4251 8.83361 89.4757 8.87157 89.5263 8.90954C89.5706 8.9475 89.6212 8.99179 89.6655 9.04241C89.7098 9.0867 89.7478 9.13732 89.7857 9.19427C89.8174 9.24489 89.8553 9.30183 89.8806 9.36511C89.906 9.42205 89.9313 9.48532 89.9503 9.54227C89.9692 9.60554 89.9819 9.66882 89.9945 9.73209C90.0009 9.79536 90.0072 9.85864 90.0072 9.92191C90.0072 10.0042 89.9945 10.0927 89.9756 10.1877L89.9439 10.3142L89.8996 10.4471L81.0793 31.3589C81.0477 31.4348 81.0097 31.5044 80.9718 31.5677C80.9275 31.6373 80.8832 31.7006 80.8326 31.7575C80.7819 31.8145 80.725 31.8714 80.6681 31.9221C80.6048 31.9727 80.5415 32.017 80.4782 32.0613C80.415 32.0992 80.3454 32.1372 80.2758 32.1625C80.2062 32.1941 80.1302 32.2194 80.0606 32.2384C79.9847 32.2574 79.9088 32.2701 79.8328 32.2827C79.7569 32.2954 79.681 32.2954 79.6051 32.2954H78.7066C78.6433 32.2954 78.58 32.2954 78.5168 32.289C78.4535 32.2827 78.3965 32.2764 78.3333 32.2701C78.2763 32.2574 78.2194 32.2447 78.1624 32.2321C78.1055 32.2194 78.0549 32.2005 77.9979 32.1751C77.9473 32.1562 77.8967 32.1309 77.8461 32.1055C77.7954 32.0802 77.7511 32.0486 77.7069 32.017C77.6626 31.9853 77.6246 31.9474 77.5866 31.9031C77.5487 31.8651 77.5107 31.8208 77.4791 31.7765C77.4474 31.7259 77.4158 31.6753 77.3905 31.6247C77.3652 31.574 77.3462 31.5234 77.3272 31.4665C77.3146 31.4159 77.3019 31.3589 77.2893 31.302C77.2829 31.245 77.2766 31.1881 77.2766 31.1248C77.2766 31.0742 77.2829 31.0236 77.2893 30.9666C77.2956 30.916 77.3019 30.8591 77.3209 30.8021L77.3652 30.6376C77.3842 30.5807 77.4032 30.5237 77.4285 30.4668L80.1935 23.7471L74.6381 10.4914C74.5938 10.4028 74.5748 10.3648 74.5495 10.2762C74.5179 10.1117 74.5052 9.98518 74.4989 9.82067C74.4989 9.42838 74.6128 9.13099 74.8406 8.92852C75.062 8.73237 75.3911 8.63113 75.8213 8.63113H77.0425C77.1247 8.63113 77.207 8.63746 77.2893 8.65012C77.3715 8.66277 77.4538 8.68175 77.5297 8.70074C77.6119 8.72604 77.6879 8.75768 77.7575 8.79564C77.8271 8.83361 77.8967 8.87157 77.9663 8.92219C78.0296 8.96648 78.0928 9.02343 78.1498 9.07405C78.2067 9.13099 78.2573 9.18794 78.308 9.25121C78.3586 9.31449 78.4029 9.38409 78.4472 9.45369C78.4851 9.52329 78.5231 9.59922 78.5547 9.68147L82.2499 18.7169L82.2436 18.6979Z" fill="black"/>
</g>
<defs>
<clipPath id="clip0_547_71">
<rect width="90" height="32.2828" fill="white"/>
</clipPath>
</defs>
</svg>
